<svg width="17" height="18" viewBox="0 0 17 18" fill="none" xmlns="http://www.w3.org/2000/svg">
<g id="&#240;&#159;&#166;&#134; icon &#34;Github&#34;">
<path id="Vector" d="M13.0389 13.565C13.0389 14.4574 10.9717 15.1764 8.423 15.1764C5.87432 15.1764 3.80713 14.4509 3.80713 13.565C3.80713 12.6726 5.87432 11.9536 8.423 11.9536C10.9717 11.9536 13.0389 12.6726 13.0389 13.565Z" fill="#9EDCF2"/>
<g id="Clip path group">
<mask id="mask0_2_409" style="mask-type:luminance" maskUnits="userSpaceOnUse" x="5" y="13" width="6" height="5">
<g id="a">
<path id="Vector_2" d="M6.43927 16.4539C6.54198 16.9354 6.79236 17.2179 7.04273 17.3848H9.68129C10.0023 17.1665 10.3297 16.7557 10.3297 15.9853V13.9951C10.3297 13.9951 10.3682 13.5008 10.824 13.3403C10.824 13.3403 11.0872 13.1541 10.8048 13.0514C10.8048 13.0514 9.55289 12.9487 9.55289 13.9759V15.491C9.55289 15.491 9.60425 16.0495 9.30894 16.2806V14.406C9.30894 14.406 9.3282 13.809 9.63635 13.5843C9.63635 13.5843 9.84179 13.2183 9.3924 13.3146C9.3924 13.3146 8.53214 13.4366 8.49362 14.4445L8.47436 16.3705H8.26892L8.24967 14.4445C8.21115 13.443 7.35089 13.3146 7.35089 13.3146C6.9015 13.2119 7.10693 13.5843 7.10693 13.5843C7.41508 13.809 7.43434 14.406 7.43434 14.406V16.2999C7.13903 16.088 7.19039 15.491 7.19039 15.491V13.9759C7.19039 12.9487 5.93852 13.0514 5.93852 13.0514C5.64963 13.1541 5.91926 13.3403 5.91926 13.3403C6.36865 13.5072 6.41359 13.9951 6.41359 13.9951V15.3882L6.43927 16.4539Z" fill="white"/>
</g>
</mask>
<g mask="url(#mask0_2_409)">
<path id="Vector_3" d="M13.039 13.565C13.039 14.4574 10.9718 15.1764 8.42312 15.1764C5.87444 15.1764 3.80725 14.451 3.80725 13.565C3.80725 12.6727 5.87444 11.9536 8.42312 11.9536C10.9718 11.9536 13.039 12.6727 13.039 13.565Z" fill="#7DBCE7"/>
</g>
</g>
<path id="Vector_4" d="M3.15224 8.82074L3.01743 9.28297C3.01743 9.28297 2.98533 9.44988 3.1394 9.48198C3.30632 9.47556 3.29348 9.32149 3.28064 9.27655L3.15224 8.82074Z" fill="#9EDCF2"/>
<path id="Vector_5" d="M16.5633 6.87552L16.5762 6.81774C15.2216 6.54811 13.8349 6.54169 12.9939 6.5802C13.1287 6.08588 13.1737 5.50809 13.1737 4.87253C13.1737 3.95449 12.827 3.22262 12.2749 2.67052C12.3712 2.35594 12.4996 1.65618 12.1465 0.763822C12.1465 0.763822 11.5173 0.564806 10.0857 1.52136C9.52718 1.38013 8.93013 1.30951 8.33309 1.30951C7.67826 1.30951 7.01702 1.39297 6.39429 1.55988C4.91773 0.551967 4.26932 0.757402 4.26932 0.757402C3.84561 1.81668 4.10882 2.60632 4.18586 2.79891C3.68511 3.33818 3.38338 4.02511 3.38338 4.86611C3.38338 5.50167 3.454 6.07304 3.63376 6.56737C2.78634 6.53527 1.45101 6.54811 0.141357 6.81132L0.154197 6.8691C1.46385 6.60588 2.81201 6.59946 3.65302 6.63156C3.69153 6.73428 3.73647 6.837 3.78141 6.9333C2.94683 6.95898 1.52804 7.06811 0.167037 7.4533L0.186296 7.51108C1.56014 7.12589 2.99177 7.02317 3.81993 6.9975C4.32068 7.92195 5.2965 8.52542 7.0427 8.7116C6.79232 8.87851 6.54195 9.16098 6.43923 9.64247C6.09898 9.80297 5.03328 10.201 4.3913 9.09679C4.3913 9.09679 4.03179 8.44196 3.34486 8.3906C3.34486 8.3906 2.6772 8.37776 3.29992 8.80789C3.29992 8.80789 3.74289 9.01975 4.05105 9.80939C4.05105 9.80939 4.4555 11.1576 6.38787 10.721V12.1013C6.38787 12.1013 6.34935 12.5956 5.89354 12.7561C5.89354 12.7561 5.62391 12.9423 5.9128 13.045C5.9128 13.045 7.16467 13.1477 7.16467 12.1205V10.6055C7.16467 10.6055 7.11331 10.002 7.40863 9.79655V12.2875C7.40863 12.2875 7.38937 12.8845 7.08121 13.1092C7.08121 13.1092 6.87578 13.4751 7.32517 13.3788C7.32517 13.3788 8.18543 13.2568 8.22395 12.2489L8.24321 9.72593H8.44864L8.4679 12.2489C8.50642 13.2504 9.36668 13.3788 9.36668 13.3788C9.81607 13.4815 9.61064 13.1092 9.61064 13.1092C9.30248 12.8845 9.28322 12.2875 9.28322 12.2875V9.81581C9.57854 10.0469 9.52718 10.6055 9.52718 10.6055V12.1205C9.52718 13.1477 10.779 13.045 10.779 13.045C11.0679 12.9423 10.7983 12.7561 10.7983 12.7561C10.3489 12.5892 10.304 12.1013 10.304 12.1013V10.1111C10.304 9.33432 9.97657 8.92345 9.65557 8.7116C11.5173 8.52542 12.4097 7.92837 12.8206 6.99108C13.6359 7.01033 15.106 7.11305 16.5056 7.51108L16.5248 7.4533C15.1317 7.06169 13.6744 6.95898 12.8462 6.9333C12.8848 6.837 12.9169 6.7407 12.949 6.63798C13.8092 6.60588 15.2023 6.60588 16.5633 6.87552Z" fill="#010101"/>
<path id="Vector_6" d="M11.2594 4.91766C11.6574 5.28359 11.895 5.72014 11.895 6.18879C11.895 8.39722 10.2515 8.45499 8.22281 8.45499C6.19414 8.45499 4.55066 8.14684 4.55066 6.18879C4.55066 5.72014 4.78177 5.28359 5.1798 4.92408C5.84105 4.32061 6.9581 4.6416 8.22281 4.6416C9.48752 4.6416 10.5982 4.31419 11.2594 4.91766Z" fill="#F5CCB3"/>
<path id="Vector_7" d="M7.09409 6.21428C7.09409 6.82417 6.75383 7.31208 6.33012 7.31208C5.90641 7.31208 5.56616 6.81775 5.56616 6.21428C5.56616 5.6044 5.90641 5.11649 6.33012 5.11649C6.75383 5.11007 7.09409 5.6044 7.09409 6.21428Z" fill="white"/>
<path id="Vector_8" d="M6.85003 6.22712C6.85003 6.63157 6.61892 6.95898 6.34286 6.95898C6.06039 6.95898 5.83569 6.63157 5.83569 6.22712C5.83569 5.82267 6.06681 5.49525 6.34286 5.49525C6.61892 5.49525 6.85003 5.82267 6.85003 6.22712Z" fill="#AF5C51"/>
<path id="Vector_9" d="M11.1963 6.21428C11.1963 6.82417 10.856 7.31208 10.4323 7.31208C10.0086 7.31208 9.66833 6.81775 9.66833 6.21428C9.66833 5.6044 10.0086 5.11649 10.4323 5.11649C10.8496 5.11007 11.1963 5.6044 11.1963 6.21428Z" fill="white"/>
<path id="Vector_10" d="M10.946 6.22712C10.946 6.63157 10.7149 6.95898 10.4388 6.95898C10.1563 6.95898 9.93164 6.63157 9.93164 6.22712C9.93164 5.82267 10.1628 5.49525 10.4388 5.49525C10.7213 5.49525 10.946 5.82267 10.946 6.22712Z" fill="#AF5C51"/>
<path id="Vector_11" d="M8.51922 7.19009C8.51922 7.29281 8.43577 7.38269 8.32663 7.38269C8.22391 7.38269 8.13403 7.29923 8.13403 7.19009C8.13403 7.08096 8.21749 6.9975 8.32663 6.9975C8.42935 6.9975 8.51922 7.08096 8.51922 7.19009Z" fill="#AF5C51"/>
<path id="Vector_12" d="M7.8839 7.67157C7.87106 7.63948 7.89032 7.60738 7.92242 7.59454C7.95452 7.5817 7.98662 7.60096 7.99946 7.63306C8.05082 7.77429 8.17922 7.86417 8.32687 7.86417C8.47453 7.86417 8.60293 7.76787 8.65429 7.63306C8.66713 7.60096 8.69923 7.5817 8.73133 7.59454C8.76342 7.60738 8.78268 7.63948 8.76984 7.67157C8.70565 7.85775 8.52589 7.98615 8.32687 7.98615C8.12786 7.98615 7.9481 7.85775 7.8839 7.67157Z" fill="#AF5C51"/>
<g id="Group">
<path id="Vector_13" d="M3.64024 8.54467C3.64024 8.59602 3.58246 8.63454 3.50542 8.63454C3.4348 8.63454 3.37061 8.59602 3.37061 8.54467C3.37061 8.49331 3.42838 8.45479 3.50542 8.45479C3.58246 8.45479 3.64024 8.49331 3.64024 8.54467Z" fill="#C4E5D9"/>
<path id="Vector_14" d="M4.01255 8.75014C4.01255 8.8015 3.95478 8.84002 3.87774 8.84002C3.80712 8.84002 3.74292 8.8015 3.74292 8.75014C3.74292 8.69878 3.8007 8.66026 3.87774 8.66026C3.95478 8.66026 4.01255 8.69878 4.01255 8.75014Z" fill="#C4E5D9"/>
<path id="Vector_15" d="M4.23729 9.01975C4.23729 9.07111 4.17951 9.10963 4.10247 9.10963C4.03185 9.10963 3.96765 9.07111 3.96765 9.01975C3.96765 8.96839 4.02543 8.92987 4.10247 8.92987C4.17951 8.92345 4.23729 8.96839 4.23729 9.01975Z" fill="#C4E5D9"/>
<path id="Vector_16" d="M4.44273 9.32792C4.44273 9.37928 4.38495 9.4178 4.30791 9.4178C4.23729 9.4178 4.1731 9.37928 4.1731 9.32792C4.1731 9.27656 4.23087 9.23804 4.30791 9.23804C4.38495 9.23162 4.44273 9.27656 4.44273 9.32792Z" fill="#C4E5D9"/>
<path id="Vector_17" d="M4.66746 9.61039C4.66746 9.66174 4.60968 9.70026 4.53264 9.70026C4.46203 9.70026 4.39783 9.66174 4.39783 9.61039C4.39783 9.55903 4.45561 9.52051 4.53264 9.52051C4.60968 9.52051 4.66746 9.55903 4.66746 9.61039Z" fill="#C4E5D9"/>
<path id="Vector_18" d="M4.97557 9.86077C4.97557 9.91213 4.91779 9.95065 4.84075 9.95065C4.77013 9.95065 4.70593 9.91213 4.70593 9.86077C4.70593 9.80941 4.76371 9.77089 4.84075 9.77089C4.91779 9.76447 4.97557 9.80941 4.97557 9.86077Z" fill="#C4E5D9"/>
<path id="Vector_19" d="M5.40574 10.0213C5.40574 10.0726 5.34796 10.1111 5.27093 10.1111C5.20031 10.1111 5.13611 10.0726 5.13611 10.0213C5.13611 9.9699 5.19389 9.93138 5.27093 9.93138C5.34796 9.93138 5.40574 9.9699 5.40574 10.0213Z" fill="#C4E5D9"/>
<path id="Vector_20" d="M5.8358 10.0213C5.8358 10.0726 5.77802 10.1111 5.70098 10.1111C5.63036 10.1111 5.56616 10.0726 5.56616 10.0213C5.56616 9.9699 5.62394 9.93138 5.70098 9.93138C5.77802 9.93138 5.8358 9.9699 5.8358 10.0213Z" fill="#C4E5D9"/>
<path id="Vector_21" d="M6.27244 9.95064C6.27244 10.002 6.21466 10.0405 6.13762 10.0405C6.06701 10.0405 6.00281 10.002 6.00281 9.95064C6.00281 9.89928 6.06059 9.86076 6.13762 9.86076C6.20824 9.86076 6.27244 9.89928 6.27244 9.95064Z" fill="#C4E5D9"/>
</g>
</g>
</svg>
