<svg width="15" height="14" viewBox="0 0 15 14" fill="none" xmlns="http://www.w3.org/2000/svg">
<g id="&#240;&#159;&#166;&#134; icon &#34;google&#34;">
<path id="Vector" d="M14.4648 5.72215H13.9135V5.69375H7.75415V8.43125H11.6219C11.0576 10.0248 9.54139 11.1687 7.75415 11.1687C5.48647 11.1687 3.6479 9.33017 3.6479 7.0625C3.6479 4.79482 5.48647 2.95625 7.75415 2.95625C8.8009 2.95625 9.75321 3.35113 10.4783 3.99616L12.4141 2.0604C11.1918 0.921261 9.55679 0.21875 7.75415 0.21875C3.97469 0.21875 0.9104 3.28304 0.9104 7.0625C0.9104 10.842 3.97469 13.9062 7.75415 13.9062C11.5336 13.9062 14.5979 10.842 14.5979 7.0625C14.5979 6.60362 14.5507 6.1557 14.4648 5.72215Z" fill="#FFC107"/>
<path id="Vector_2" d="M1.69946 3.87708L3.94798 5.52608C4.55638 4.01977 6.02984 2.95625 7.75413 2.95625C8.80088 2.95625 9.75318 3.35113 10.4783 3.99616L12.414 2.0604C11.1917 0.921261 9.55677 0.21875 7.75413 0.21875C5.12544 0.21875 2.84579 1.70282 1.69946 3.87708Z" fill="#FF3D00"/>
<path id="Vector_3" d="M7.75414 13.9063C9.52188 13.9063 11.1281 13.2298 12.3425 12.1296L10.2244 10.3372C9.53728 10.8577 8.68318 11.1688 7.75414 11.1688C5.97409 11.1688 4.46264 10.0337 3.89324 8.44974L1.6615 10.1692C2.79414 12.3856 5.09432 13.9063 7.75414 13.9063Z" fill="#4CAF50"/>
<path id="Vector_4" d="M14.4648 5.72216H13.9135V5.69376H7.75415V8.43125H11.6219C11.3509 9.19673 10.8585 9.85681 10.2234 10.3376C10.2237 10.3372 10.2241 10.3372 10.2244 10.3369L12.3425 12.1293C12.1927 12.2655 14.5979 10.4844 14.5979 7.06251C14.5979 6.60363 14.5507 6.15571 14.4648 5.72216Z" fill="#1976D2"/>
</g>
</svg>
